<mxfile host="app.diagrams.net" modified="2024-04-22T21:24:25.979Z" agent="Mozilla/5.0 (Windows NT 10.0; Win64; x64) AppleWebKit/537.36 (KHTML, like Gecko) Chrome/123.0.0.0 Safari/537.36" etag="sjAntstH1HS2MMKEe8eU" version="24.2.7" type="github" pages="3">
  <diagram id="C5RBs43oDa-KdzZeNtuy" name="Components">
    <mxGraphModel dx="989" dy="592" grid="1" gridSize="10" guides="1" tooltips="1" connect="1" arrows="1" fold="1" page="1" pageScale="1" pageWidth="827" pageHeight="1169" math="0" shadow="0">
      <root>
        <mxCell id="WIyWlLk6GJQsqaUBKTNV-0" />
        <mxCell id="WIyWlLk6GJQsqaUBKTNV-1" parent="WIyWlLk6GJQsqaUBKTNV-0" />
        <mxCell id="FSC2xQSQnxuu6QK0y-9J-13" value="&lt;span style=&quot;white-space-collapse: preserve;&quot; data-slate-fragment=&quot;JTVCJTdCJTIyZGF0YSUyMiUzQSU3QiU3RCUyQyUyMnR5cGUlMjIlM0ElMjJwYXJhZ3JhcGglMjIlMkMlMjJjaGlsZHJlbiUyMiUzQSU1QiU3QiUyMnRleHQlMjIlM0ElMjJzeXN0ZW0ncyUyMGNvbXBvbmVudHMlMjBkaWFncmFtJTIyJTJDJTIydXVpLXJpY2hUZXh0RWRpdG9yLXNwYW4tbWFyayUyMiUzQXRydWUlN0QlNUQlN0QlNUQ=&quot;&gt;System&#39;s components diagram&lt;/span&gt;" style="swimlane;html=1;childLayout=stackLayout;horizontal=1;startSize=20;horizontalStack=0;rounded=0;shadow=0;labelBackgroundColor=none;strokeWidth=1;fontFamily=Verdana;fontSize=8;align=center;" vertex="1" parent="WIyWlLk6GJQsqaUBKTNV-1">
          <mxGeometry x="40" y="10" width="680" height="470" as="geometry" />
        </mxCell>
        <mxCell id="FSC2xQSQnxuu6QK0y-9J-14" value="&lt;div&gt;Presentation layer&lt;/div&gt;" style="swimlane;html=1;startSize=20;horizontal=0;" vertex="1" parent="FSC2xQSQnxuu6QK0y-9J-13">
          <mxGeometry y="20" width="680" height="150" as="geometry" />
        </mxCell>
        <mxCell id="FSC2xQSQnxuu6QK0y-9J-15" style="edgeStyle=orthogonalEdgeStyle;rounded=0;html=1;labelBackgroundColor=none;startArrow=none;startFill=0;startSize=5;endArrow=classicThin;endFill=1;endSize=5;jettySize=auto;orthogonalLoop=1;strokeWidth=1;fontFamily=Verdana;fontSize=8" edge="1" parent="FSC2xQSQnxuu6QK0y-9J-14" source="FSC2xQSQnxuu6QK0y-9J-16" target="FSC2xQSQnxuu6QK0y-9J-17">
          <mxGeometry relative="1" as="geometry" />
        </mxCell>
        <mxCell id="FSC2xQSQnxuu6QK0y-9J-16" value="Customer" style="ellipse;whiteSpace=wrap;html=1;rounded=0;shadow=0;labelBackgroundColor=none;strokeWidth=1;fontFamily=Verdana;fontSize=8;align=center;" vertex="1" parent="FSC2xQSQnxuu6QK0y-9J-14">
          <mxGeometry x="150" y="6.5" width="50" height="50" as="geometry" />
        </mxCell>
        <mxCell id="FSC2xQSQnxuu6QK0y-9J-17" value="Castomer interface" style="rounded=1;whiteSpace=wrap;html=1;shadow=0;labelBackgroundColor=none;strokeWidth=1;fontFamily=Verdana;fontSize=8;align=center;" vertex="1" parent="FSC2xQSQnxuu6QK0y-9J-14">
          <mxGeometry x="305" y="56.49999999999997" width="70" height="37" as="geometry" />
        </mxCell>
        <mxCell id="FSC2xQSQnxuu6QK0y-9J-38" style="edgeStyle=orthogonalEdgeStyle;rounded=0;html=1;labelBackgroundColor=none;startArrow=none;startFill=0;startSize=5;endArrow=classicThin;endFill=1;endSize=5;jettySize=auto;orthogonalLoop=1;strokeWidth=1;fontFamily=Verdana;fontSize=8" edge="1" parent="FSC2xQSQnxuu6QK0y-9J-13" source="FSC2xQSQnxuu6QK0y-9J-17" target="FSC2xQSQnxuu6QK0y-9J-28">
          <mxGeometry relative="1" as="geometry">
            <Array as="points">
              <mxPoint x="340" y="150" />
              <mxPoint x="340" y="150" />
            </Array>
          </mxGeometry>
        </mxCell>
        <mxCell id="FSC2xQSQnxuu6QK0y-9J-48" value="Request" style="edgeLabel;html=1;align=center;verticalAlign=middle;resizable=0;points=[];" vertex="1" connectable="0" parent="FSC2xQSQnxuu6QK0y-9J-38">
          <mxGeometry x="-0.827" y="1" relative="1" as="geometry">
            <mxPoint x="-1" y="18" as="offset" />
          </mxGeometry>
        </mxCell>
        <mxCell id="FSC2xQSQnxuu6QK0y-9J-26" value="Business logical layer" style="swimlane;html=1;startSize=20;horizontal=0;" vertex="1" parent="FSC2xQSQnxuu6QK0y-9J-13">
          <mxGeometry y="170" width="680" height="150" as="geometry" />
        </mxCell>
        <mxCell id="FSC2xQSQnxuu6QK0y-9J-28" value="API Gateway" style="rounded=1;whiteSpace=wrap;html=1;shadow=0;labelBackgroundColor=none;strokeWidth=1;fontFamily=Verdana;fontSize=8;align=center;" vertex="1" parent="FSC2xQSQnxuu6QK0y-9J-26">
          <mxGeometry x="310" y="20" width="65" height="37" as="geometry" />
        </mxCell>
        <mxCell id="FSC2xQSQnxuu6QK0y-9J-19" value="Identity Service" style="rounded=1;whiteSpace=wrap;html=1;shadow=0;labelBackgroundColor=none;strokeWidth=1;fontFamily=Verdana;fontSize=8;align=center;" vertex="1" parent="FSC2xQSQnxuu6QK0y-9J-26">
          <mxGeometry x="40" y="99.99999999999997" width="70" height="37" as="geometry" />
        </mxCell>
        <mxCell id="FSC2xQSQnxuu6QK0y-9J-45" value="Account Service" style="rounded=1;whiteSpace=wrap;html=1;shadow=0;labelBackgroundColor=none;strokeWidth=1;fontFamily=Verdana;fontSize=8;align=center;" vertex="1" parent="FSC2xQSQnxuu6QK0y-9J-26">
          <mxGeometry x="410" y="100" width="70" height="37" as="geometry" />
        </mxCell>
        <mxCell id="FSC2xQSQnxuu6QK0y-9J-46" value="Event Service" style="rounded=1;whiteSpace=wrap;html=1;shadow=0;labelBackgroundColor=none;strokeWidth=1;fontFamily=Verdana;fontSize=8;align=center;" vertex="1" parent="FSC2xQSQnxuu6QK0y-9J-26">
          <mxGeometry x="320" y="100" width="70" height="37" as="geometry" />
        </mxCell>
        <mxCell id="FSC2xQSQnxuu6QK0y-9J-22" value="Payment Service" style="rounded=1;whiteSpace=wrap;html=1;shadow=0;labelBackgroundColor=none;strokeWidth=1;fontFamily=Verdana;fontSize=8;align=center;" vertex="1" parent="FSC2xQSQnxuu6QK0y-9J-26">
          <mxGeometry x="130" y="99.99999999999997" width="70" height="37" as="geometry" />
        </mxCell>
        <mxCell id="FSC2xQSQnxuu6QK0y-9J-37" value="Notification Service" style="rounded=1;whiteSpace=wrap;html=1;shadow=0;labelBackgroundColor=none;strokeWidth=1;fontFamily=Verdana;fontSize=8;align=center;" vertex="1" parent="FSC2xQSQnxuu6QK0y-9J-26">
          <mxGeometry x="230" y="100" width="70" height="37" as="geometry" />
        </mxCell>
        <mxCell id="FSC2xQSQnxuu6QK0y-9J-52" value="Ticketing service" style="rounded=1;whiteSpace=wrap;html=1;shadow=0;labelBackgroundColor=none;strokeWidth=1;fontFamily=Verdana;fontSize=8;align=center;" vertex="1" parent="FSC2xQSQnxuu6QK0y-9J-26">
          <mxGeometry x="500" y="100" width="70" height="37" as="geometry" />
        </mxCell>
        <mxCell id="FSC2xQSQnxuu6QK0y-9J-59" value="" style="endArrow=classic;startArrow=classic;html=1;rounded=0;entryX=0;entryY=0.5;entryDx=0;entryDy=0;" edge="1" parent="FSC2xQSQnxuu6QK0y-9J-26" target="FSC2xQSQnxuu6QK0y-9J-28">
          <mxGeometry width="50" height="50" relative="1" as="geometry">
            <mxPoint x="80" y="100" as="sourcePoint" />
            <mxPoint x="200" y="60" as="targetPoint" />
            <Array as="points">
              <mxPoint x="80" y="39" />
            </Array>
          </mxGeometry>
        </mxCell>
        <mxCell id="FSC2xQSQnxuu6QK0y-9J-61" value="" style="endArrow=classic;startArrow=classic;html=1;rounded=0;entryX=0.5;entryY=1;entryDx=0;entryDy=0;" edge="1" parent="FSC2xQSQnxuu6QK0y-9J-26">
          <mxGeometry width="50" height="50" relative="1" as="geometry">
            <mxPoint x="80" y="185" as="sourcePoint" />
            <mxPoint x="80" y="137" as="targetPoint" />
          </mxGeometry>
        </mxCell>
        <mxCell id="FSC2xQSQnxuu6QK0y-9J-62" value="" style="endArrow=classic;startArrow=classic;html=1;rounded=0;entryX=0;entryY=0.75;entryDx=0;entryDy=0;exitX=0.429;exitY=0;exitDx=0;exitDy=0;exitPerimeter=0;" edge="1" parent="FSC2xQSQnxuu6QK0y-9J-26" source="FSC2xQSQnxuu6QK0y-9J-22" target="FSC2xQSQnxuu6QK0y-9J-28">
          <mxGeometry width="50" height="50" relative="1" as="geometry">
            <mxPoint x="130" y="160" as="sourcePoint" />
            <mxPoint x="180" y="110" as="targetPoint" />
            <Array as="points">
              <mxPoint x="160" y="50" />
            </Array>
          </mxGeometry>
        </mxCell>
        <mxCell id="FSC2xQSQnxuu6QK0y-9J-63" value="" style="endArrow=classic;startArrow=classic;html=1;rounded=0;entryX=0.25;entryY=1;entryDx=0;entryDy=0;" edge="1" parent="FSC2xQSQnxuu6QK0y-9J-26" target="FSC2xQSQnxuu6QK0y-9J-28">
          <mxGeometry width="50" height="50" relative="1" as="geometry">
            <mxPoint x="260" y="100" as="sourcePoint" />
            <mxPoint x="180" y="110" as="targetPoint" />
            <Array as="points">
              <mxPoint x="260" y="80" />
              <mxPoint x="326" y="80" />
            </Array>
          </mxGeometry>
        </mxCell>
        <mxCell id="FSC2xQSQnxuu6QK0y-9J-64" value="" style="endArrow=classic;startArrow=classic;html=1;rounded=0;exitX=0.313;exitY=-0.011;exitDx=0;exitDy=0;exitPerimeter=0;" edge="1" parent="FSC2xQSQnxuu6QK0y-9J-26" source="FSC2xQSQnxuu6QK0y-9J-46" target="FSC2xQSQnxuu6QK0y-9J-28">
          <mxGeometry width="50" height="50" relative="1" as="geometry">
            <mxPoint x="130" y="160" as="sourcePoint" />
            <mxPoint x="350" y="60" as="targetPoint" />
          </mxGeometry>
        </mxCell>
        <mxCell id="FSC2xQSQnxuu6QK0y-9J-74" value="" style="endArrow=classic;startArrow=classic;html=1;rounded=0;entryX=0.77;entryY=1.013;entryDx=0;entryDy=0;entryPerimeter=0;" edge="1" parent="FSC2xQSQnxuu6QK0y-9J-26" target="FSC2xQSQnxuu6QK0y-9J-28">
          <mxGeometry width="50" height="50" relative="1" as="geometry">
            <mxPoint x="440.30487804878044" y="100" as="sourcePoint" />
            <mxPoint x="380" y="57" as="targetPoint" />
            <Array as="points">
              <mxPoint x="440" y="80" />
              <mxPoint x="360" y="80" />
            </Array>
          </mxGeometry>
        </mxCell>
        <mxCell id="FSC2xQSQnxuu6QK0y-9J-77" value="" style="endArrow=classic;startArrow=classic;html=1;rounded=0;exitX=1;exitY=0.75;exitDx=0;exitDy=0;entryX=0.409;entryY=-0.018;entryDx=0;entryDy=0;entryPerimeter=0;" edge="1" parent="FSC2xQSQnxuu6QK0y-9J-26" source="FSC2xQSQnxuu6QK0y-9J-28" target="FSC2xQSQnxuu6QK0y-9J-52">
          <mxGeometry width="50" height="50" relative="1" as="geometry">
            <mxPoint x="410" y="120" as="sourcePoint" />
            <mxPoint x="460" y="70" as="targetPoint" />
            <Array as="points">
              <mxPoint x="530" y="50" />
            </Array>
          </mxGeometry>
        </mxCell>
        <mxCell id="FSC2xQSQnxuu6QK0y-9J-80" value="" style="endArrow=classic;startArrow=classic;html=1;rounded=0;exitX=0.412;exitY=0.018;exitDx=0;exitDy=0;exitPerimeter=0;" edge="1" parent="FSC2xQSQnxuu6QK0y-9J-26" source="FSC2xQSQnxuu6QK0y-9J-57">
          <mxGeometry width="50" height="50" relative="1" as="geometry">
            <mxPoint x="310" y="187" as="sourcePoint" />
            <mxPoint x="360" y="137" as="targetPoint" />
          </mxGeometry>
        </mxCell>
        <mxCell id="FSC2xQSQnxuu6QK0y-9J-30" value="Data access layer" style="swimlane;html=1;startSize=20;horizontal=0;" vertex="1" parent="FSC2xQSQnxuu6QK0y-9J-13">
          <mxGeometry y="320" width="680" height="150" as="geometry" />
        </mxCell>
        <mxCell id="FSC2xQSQnxuu6QK0y-9J-56" value="DB" style="shape=cylinder3;whiteSpace=wrap;html=1;boundedLbl=1;backgroundOutline=1;size=15;" vertex="1" parent="FSC2xQSQnxuu6QK0y-9J-30">
          <mxGeometry x="135" y="35" width="60" height="80" as="geometry" />
        </mxCell>
        <mxCell id="FSC2xQSQnxuu6QK0y-9J-55" value="DB" style="shape=cylinder3;whiteSpace=wrap;html=1;boundedLbl=1;backgroundOutline=1;size=15;" vertex="1" parent="FSC2xQSQnxuu6QK0y-9J-30">
          <mxGeometry x="50" y="35" width="60" height="80" as="geometry" />
        </mxCell>
        <mxCell id="FSC2xQSQnxuu6QK0y-9J-57" value="DB" style="shape=cylinder3;whiteSpace=wrap;html=1;boundedLbl=1;backgroundOutline=1;size=15;" vertex="1" parent="FSC2xQSQnxuu6QK0y-9J-30">
          <mxGeometry x="374" y="35" width="60" height="80" as="geometry" />
        </mxCell>
        <mxCell id="FSC2xQSQnxuu6QK0y-9J-60" value="" style="endArrow=classic;startArrow=classic;html=1;rounded=0;entryX=0.5;entryY=1;entryDx=0;entryDy=0;" edge="1" parent="FSC2xQSQnxuu6QK0y-9J-13" source="FSC2xQSQnxuu6QK0y-9J-56" target="FSC2xQSQnxuu6QK0y-9J-22">
          <mxGeometry width="50" height="50" relative="1" as="geometry">
            <mxPoint x="130" y="380" as="sourcePoint" />
            <mxPoint x="180" y="330" as="targetPoint" />
          </mxGeometry>
        </mxCell>
        <mxCell id="FSC2xQSQnxuu6QK0y-9J-78" value="" style="endArrow=classic;startArrow=classic;html=1;rounded=0;entryX=0.5;entryY=1;entryDx=0;entryDy=0;exitX=0.914;exitY=0.099;exitDx=0;exitDy=0;exitPerimeter=0;" edge="1" parent="FSC2xQSQnxuu6QK0y-9J-13" source="FSC2xQSQnxuu6QK0y-9J-57" target="FSC2xQSQnxuu6QK0y-9J-52">
          <mxGeometry width="50" height="50" relative="1" as="geometry">
            <mxPoint x="410" y="373" as="sourcePoint" />
            <mxPoint x="535" y="300" as="targetPoint" />
          </mxGeometry>
        </mxCell>
        <mxCell id="FSC2xQSQnxuu6QK0y-9J-79" value="" style="endArrow=classic;startArrow=classic;html=1;rounded=0;entryX=0.5;entryY=1;entryDx=0;entryDy=0;exitX=0.657;exitY=0.027;exitDx=0;exitDy=0;exitPerimeter=0;" edge="1" parent="FSC2xQSQnxuu6QK0y-9J-13" source="FSC2xQSQnxuu6QK0y-9J-57" target="FSC2xQSQnxuu6QK0y-9J-45">
          <mxGeometry width="50" height="50" relative="1" as="geometry">
            <mxPoint x="402.71" y="355" as="sourcePoint" />
            <mxPoint x="433.99999999999994" y="280.409" as="targetPoint" />
          </mxGeometry>
        </mxCell>
        <mxCell id="FSC2xQSQnxuu6QK0y-9J-82" value="" style="endArrow=classic;startArrow=classic;html=1;rounded=0;entryX=0.5;entryY=1;entryDx=0;entryDy=0;exitX=0.094;exitY=0.09;exitDx=0;exitDy=0;exitPerimeter=0;" edge="1" parent="FSC2xQSQnxuu6QK0y-9J-13" source="FSC2xQSQnxuu6QK0y-9J-57" target="FSC2xQSQnxuu6QK0y-9J-37">
          <mxGeometry width="50" height="50" relative="1" as="geometry">
            <mxPoint x="382.27" y="363.44" as="sourcePoint" />
            <mxPoint x="240.0000000000001" y="289.9959999999999" as="targetPoint" />
          </mxGeometry>
        </mxCell>
      </root>
    </mxGraphModel>
  </diagram>
  <diagram id="VbopG9nKai5J8iTSAUIw" name="State machine">
    <mxGraphModel dx="1434" dy="858" grid="1" gridSize="10" guides="1" tooltips="1" connect="1" arrows="1" fold="1" page="1" pageScale="1" pageWidth="850" pageHeight="1100" math="0" shadow="0">
      <root>
        <mxCell id="0" />
        <mxCell id="1" parent="0" />
      </root>
    </mxGraphModel>
  </diagram>
  <diagram id="KAtjBUedNfmfqGlVJ2dM" name="Sequence">
    <mxGraphModel dx="1434" dy="858" grid="1" gridSize="10" guides="1" tooltips="1" connect="1" arrows="1" fold="1" page="1" pageScale="1" pageWidth="850" pageHeight="1100" math="0" shadow="0">
      <root>
        <mxCell id="0" />
        <mxCell id="1" parent="0" />
      </root>
    </mxGraphModel>
  </diagram>
</mxfile>
